<svg width="40" height="28" viewBox="0 0 40 28" fill="none" xmlns="http://www.w3.org/2000/svg">
<rect x="0.5" y="0.5" width="39" height="26.4286" rx="5.5" fill="#1F72CD" stroke="#D9D9D9"/>
<path fill-rule="evenodd" clip-rule="evenodd" d="M7.1712 9.71429L3.42871 17.9963H7.90899L8.46441 16.6758H9.73399L10.2894 17.9963H15.2209V16.9884L15.6604 17.9963H18.2113L18.6508 16.9671V17.9963H28.907L30.1541 16.7101L31.3219 17.9963L36.5897 18.0069L32.8354 13.8784L36.5897 9.71429H31.4036L30.1896 10.9767L29.0586 9.71429H17.9012L16.9431 11.8519L15.9625 9.71429H11.4916V10.6878L10.9942 9.71429H7.1712ZM22.4868 10.8904H28.3764L30.1778 12.8362L32.0372 10.8904H33.8385L31.1016 13.8772L33.8385 16.8297H31.9555L30.1541 14.8613L28.2852 16.8297H22.4868V10.8904ZM23.9412 13.2057V12.1208V12.1198H27.6161L29.2197 13.8548L27.5451 15.5992H23.9412V14.4149H27.1542V13.2057H23.9412ZM8.0381 10.8904H10.222L12.7044 16.5064V10.8904H15.0968L17.0141 14.917L18.7812 10.8904H21.1616V16.8332H19.7132L19.7013 12.1764L17.5897 16.8332H16.294L14.1705 12.1764V16.8332H11.1907L10.6258 15.5009H7.57387L7.01013 16.8321H5.41361L8.0381 10.8904ZM8.09499 14.2693L9.10049 11.8959L10.1048 14.2693H8.09499Z" fill="white"/>
</svg>
