<svg width="40" height="28" viewBox="0 0 40 28" fill="none" xmlns="http://www.w3.org/2000/svg">
<rect x="0.5" y="0.5" width="39" height="26.4286" rx="5.5" fill="white" stroke="#D9D9D9"/>
<path fill-rule="evenodd" clip-rule="evenodd" d="M29.2879 13.7881C29.2879 18.8783 25.1617 23.0048 20.0717 23.0048C14.9817 23.0048 10.8555 18.8783 10.8555 13.7881C10.8555 8.69786 14.9817 4.57141 20.0717 4.57141C25.1617 4.57141 29.2879 8.69786 29.2879 13.7881ZM22.2858 10.3638C23.5679 10.804 24.5056 11.4633 24.3217 12.6901C24.188 13.5885 23.6882 14.023 23.024 14.1751C23.9352 14.6477 24.2458 15.5445 23.9572 16.6288C23.4093 18.1894 22.1071 18.3207 20.375 17.9946L19.9544 19.6721L18.9391 19.4197L19.3539 17.7647C19.0907 17.6995 18.8216 17.6298 18.5445 17.5555L18.128 19.2185L17.1138 18.9661L17.5338 17.2852L15.4888 16.7712L15.9932 15.6129C15.9932 15.6129 16.7418 15.8106 16.7314 15.7962C17.019 15.867 17.1468 15.6803 17.1971 15.5564L18.3368 11.0034C18.3496 10.7885 18.2749 10.5176 17.8636 10.4151C17.8792 10.4041 17.126 10.2324 17.126 10.2324L17.3962 9.15189L19.4441 9.65727L19.8607 7.99534L20.8754 8.24774L20.4675 9.87683C20.7406 9.93849 21.0148 10.0013 21.2815 10.0676L21.6865 8.44886L22.7018 8.70126L22.2858 10.3638ZM19.8565 13.1361C20.5481 13.3195 22.053 13.7185 22.3154 12.6723C22.583 11.6019 21.1208 11.2786 20.4049 11.1203L20.4049 11.1203C20.3238 11.1024 20.2523 11.0866 20.1939 11.072L19.6883 13.0924C19.7364 13.1043 19.793 13.1193 19.8564 13.1361L19.8565 13.1361ZM19.0728 16.389C19.9012 16.6072 21.7129 17.0844 22.0012 15.9316C22.2963 14.7529 20.5397 14.3603 19.6826 14.1687L19.6826 14.1687L19.6825 14.1686C19.5868 14.1473 19.5023 14.1284 19.4331 14.1112L18.8754 16.3378C18.932 16.3519 18.9982 16.3693 19.0724 16.3888L19.0728 16.389Z" fill="#F7931A"/>
</svg>
