<svg width="40" height="28" viewBox="0 0 40 28" fill="none" xmlns="http://www.w3.org/2000/svg">
<rect x="0.5" y="0.5" width="39" height="26.4286" rx="5.5" fill="white" stroke="#D9D9D9"/>
<path d="M25.5066 14.0427C26.0937 14.0554 26.6841 14.0168 27.2688 14.0628C27.8609 14.1732 28.0036 15.0697 27.4775 15.3633C27.1186 15.5567 26.6922 15.4353 26.3031 15.4694H25.5066V14.0427ZM27.6082 12.4278C27.7386 12.8882 27.2948 13.3015 26.8514 13.2381H25.5066C25.516 12.804 25.4882 12.3327 25.5203 11.9215C26.059 11.9366 26.6027 11.8905 27.1383 11.9456C27.3685 12.0034 27.5611 12.1926 27.6082 12.4278ZM30.8447 5.60056C30.8698 6.47976 30.8483 7.40543 30.8555 8.30247C30.8539 11.9495 30.859 15.5964 30.8527 19.2436C30.8291 20.6104 29.6177 21.7981 28.2604 21.8254C26.9017 21.8309 25.5429 21.8262 24.184 21.8277V16.3142C25.6645 16.3066 27.1458 16.3297 28.6258 16.3026C29.3123 16.2595 30.0643 15.8066 30.0962 15.051C30.1771 14.2923 29.4617 13.7674 28.7825 13.6845C28.5214 13.6778 28.5291 13.6084 28.7825 13.5782C29.4303 13.4382 29.939 12.7677 29.7484 12.0962C29.586 11.39 28.8054 11.1167 28.1561 11.118C26.8323 11.109 25.5082 11.1168 24.1843 11.1141C24.1928 10.0848 24.1665 9.05442 24.1985 8.02586C24.3034 6.68372 25.5452 5.5769 26.8835 5.60091C28.2041 5.60071 29.5245 5.60071 30.8447 5.60066V5.60056Z" fill="url(#paint0_linear_460_1631)"/>
<path d="M9.22369 8.16506C9.2575 6.80041 10.474 5.6225 11.8296 5.60255C13.1832 5.59838 14.5371 5.60195 15.8907 5.60075C15.887 10.1666 15.8981 14.7329 15.8851 19.2984C15.833 20.6465 14.6298 21.802 13.2889 21.8258C11.9327 21.8307 10.5764 21.8265 9.22012 21.8279V16.1285C10.5375 16.4397 11.919 16.5722 13.2629 16.3657C14.0663 16.2365 14.9452 15.842 15.2172 15.0085C15.4173 14.2956 15.3047 13.5453 15.3344 12.8136V11.1143H13.0086C12.9982 12.2382 13.03 13.364 12.9918 14.4865C12.9291 15.1765 12.2458 15.6148 11.5951 15.5914C10.7881 15.6 9.18888 15.0066 9.18888 15.0066C9.18486 12.9009 9.21229 10.2639 9.22369 8.16526V8.16506Z" fill="url(#paint1_linear_460_1631)"/>
<path d="M16.7579 11.7996C16.6355 11.8255 16.7333 11.3825 16.702 11.2145C16.7104 10.152 16.6846 9.08831 16.7162 8.02655C16.8208 6.67873 18.0722 5.56914 19.4159 5.60069H23.3729C23.3692 10.1665 23.3802 14.7328 23.3674 19.2984C23.3152 20.6464 22.1118 21.8019 20.771 21.8258C19.4147 21.8309 18.0583 21.8266 16.702 21.8279V15.5834C17.6283 16.3434 18.8873 16.4617 20.0413 16.4638C20.9113 16.4635 21.7762 16.3294 22.6211 16.1287V14.9847C21.669 15.4592 20.5497 15.7607 19.4942 15.488C18.758 15.3048 18.2235 14.5932 18.2354 13.8334C18.1501 13.0432 18.6133 12.209 19.3898 11.974C20.3539 11.6722 21.4046 11.9031 22.3084 12.2955C22.502 12.3968 22.6985 12.5226 22.6211 12.199V11.2998C21.1097 10.9402 19.5012 10.8078 17.9827 11.199C17.5432 11.323 17.115 11.5111 16.7579 11.7997V11.7996Z" fill="url(#paint2_linear_460_1631)"/>
<defs>
<linearGradient id="paint0_linear_460_1631" x1="24.1385" y1="13.3672" x2="30.8135" y2="13.3672" gradientUnits="userSpaceOnUse">
<stop stop-color="#58B03A"/>
<stop offset="1" stop-color="#55B330"/>
</linearGradient>
<linearGradient id="paint1_linear_460_1631" x1="9.0782" y1="13.8697" x2="15.7814" y2="13.8697" gradientUnits="userSpaceOnUse">
<stop stop-color="#0F6EB6"/>
<stop offset="1" stop-color="#006DBA"/>
</linearGradient>
<linearGradient id="paint2_linear_460_1631" x1="16.6922" y1="13.5245" x2="23.3717" y2="13.5245" gradientUnits="userSpaceOnUse">
<stop stop-color="#DE0D3D"/>
<stop offset="1" stop-color="#E30138"/>
</linearGradient>
</defs>
</svg>
