<svg width="40" height="28" viewBox="0 0 40 28" fill="none" xmlns="http://www.w3.org/2000/svg">
<rect x="0.5" y="0.5" width="39" height="26.4286" rx="5.5" fill="white" stroke="#D9D9D9"/>
<path fill-rule="evenodd" clip-rule="evenodd" d="M20.2859 19.6079C18.9241 20.7831 17.1576 21.4925 15.2273 21.4925C10.9203 21.4925 7.42871 17.9605 7.42871 13.6034C7.42871 9.24638 10.9203 5.71429 15.2273 5.71429C17.1576 5.71429 18.9241 6.42372 20.2859 7.5989C21.6476 6.42372 23.4141 5.71429 25.3444 5.71429C29.6514 5.71429 33.143 9.24638 33.143 13.6034C33.143 17.9605 29.6514 21.4925 25.3444 21.4925C23.4141 21.4925 21.6476 20.7831 20.2859 19.6079Z" fill="#ED0006"/>
<path fill-rule="evenodd" clip-rule="evenodd" d="M20.2856 19.6079C21.9624 18.1609 23.0257 16.0078 23.0257 13.6034C23.0257 11.1991 21.9624 9.04591 20.2856 7.5989C21.6474 6.42372 23.4139 5.71429 25.3442 5.71429C29.6512 5.71429 33.1428 9.24638 33.1428 13.6034C33.1428 17.9605 29.6512 21.4925 25.3442 21.4925C23.4139 21.4925 21.6474 20.7831 20.2856 19.6079Z" fill="#F9A000"/>
<path fill-rule="evenodd" clip-rule="evenodd" d="M20.2859 19.6079C21.9627 18.1609 23.0259 16.0078 23.0259 13.6034C23.0259 11.1991 21.9627 9.04595 20.2859 7.59894C18.6091 9.04595 17.5459 11.1991 17.5459 13.6034C17.5459 16.0078 18.6091 18.1609 20.2859 19.6079Z" fill="#FF5E00"/>
</svg>
