<svg width="24" height="24" viewBox="0 0 24 24" fill="none" xmlns="http://www.w3.org/2000/svg">
<mask id="mask0_287_2687" style="mask-type:luminance" maskUnits="userSpaceOnUse" x="0" y="0" width="24" height="24">
<path d="M0 0H24V24H0V0Z" fill="white"/>
</mask>
<g mask="url(#mask0_287_2687)">
<path d="M11.385 15.275C12.496 15.271 14.925 15.262 14.897 13.717C14.87 12.137 12.537 12.232 11.4 12.279C11.272 12.285 11.1613 12.2886 11.068 12.29L11.12 15.277C11.196 15.275 11.2843 15.2743 11.385 15.275ZM11.267 10.922C12.194 10.921 14.217 10.919 14.193 9.51397C14.167 8.07697 12.224 8.16197 11.275 8.20397C11.1683 8.2093 11.0757 8.21263 10.997 8.21397L11.044 10.923L11.267 10.922Z" fill="url(#paint0_linear_287_2687)"/>
<path fill-rule="evenodd" clip-rule="evenodd" d="M9.09598 23.641C15.526 25.244 22.038 21.331 23.641 14.903C25.244 8.47399 21.33 1.96199 14.9 0.359994C8.47398 -1.24401 1.96198 2.66999 0.359982 9.09999C-1.24302 15.528 2.66998 22.04 9.09698 23.642M13.379 6.62199C15.133 6.74599 16.529 7.25999 16.712 8.86399C16.848 10.038 16.368 10.753 15.589 11.167C16.889 11.455 17.714 12.21 17.584 13.938C17.423 16.083 15.836 16.686 13.558 16.857L13.596 19.107L12.24 19.131L12.201 16.911C11.8503 16.9177 11.489 16.9203 11.117 16.919L11.157 19.149L9.80098 19.173L9.76098 16.919L9.37798 16.922C9.18332 16.922 8.98798 16.924 8.79198 16.928L7.02598 16.958L7.26698 15.334C7.26698 15.334 8.27098 15.332 8.25298 15.317C8.63698 15.309 8.73398 15.032 8.75498 14.858L8.69298 11.3L8.78998 11.298H8.83598C8.78821 11.2922 8.74009 11.2899 8.69198 11.291L8.64798 8.75099C8.59098 8.47699 8.40698 8.16099 7.85798 8.17099C7.87298 8.15099 6.87198 8.18799 6.87198 8.18799L6.84598 6.73999L8.71798 6.70799V6.71499C8.99998 6.70966 9.28765 6.70099 9.58098 6.68899L9.54298 4.45999L10.899 4.43699L10.937 6.62099C11.299 6.60799 11.663 6.59399 12.02 6.58799L11.982 4.41799L13.339 4.39399L13.379 6.62199Z" fill="url(#paint1_linear_287_2687)"/>
</g>
<defs>
<linearGradient id="paint0_linear_287_2687" x1="12.9471" y1="8.1861" x2="12.9471" y2="15.277" gradientUnits="userSpaceOnUse">
<stop stop-color="#FCCB00"/>
<stop offset="1" stop-color="#CE9C00"/>
</linearGradient>
<linearGradient id="paint1_linear_287_2687" x1="12.0004" y1="0.000488281" x2="12.0004" y2="24.0002" gradientUnits="userSpaceOnUse">
<stop stop-color="#FCCB00"/>
<stop offset="1" stop-color="#CE9C00"/>
</linearGradient>
</defs>
</svg>
