<svg width="111" height="111" viewBox="0 0 111 111" fill="none" xmlns="http://www.w3.org/2000/svg">
<path d="M101.026 58.1112C100.979 58.9219 101.314 59.348 102.031 59.3895C102.581 59.4214 103.086 59.0252 103.545 58.2011C103.742 57.8573 103.944 57.5137 104.151 57.1705C104.358 56.8272 104.627 56.5389 104.959 56.3057C105.29 56.0818 105.669 55.9823 106.098 56.0071C106.731 56.0438 107.22 56.3199 107.564 56.8353C107.917 57.3606 108.072 58.0053 108.027 58.7693C107.983 59.5334 107.807 60.1496 107.5 60.6179C107.443 60.624 107.256 60.6178 106.94 60.5995C106.632 60.5817 106.282 60.5006 105.888 60.3562L105.86 59.6254C106.552 59.6188 106.968 59.54 107.108 59.3892C107.247 59.2477 107.328 58.9719 107.352 58.5619C107.376 58.152 107.31 57.835 107.155 57.6109C107.001 57.3589 106.771 57.2241 106.463 57.2062C106.165 57.189 105.897 57.2996 105.659 57.5383C105.42 57.7862 105.201 58.0867 105.003 58.4399C104.815 58.7935 104.612 59.1417 104.396 59.4845C104.179 59.8365 103.891 60.1284 103.532 60.36C103.181 60.6014 102.782 60.7092 102.335 60.6833C101.683 60.6455 101.175 60.373 100.812 59.8658C100.458 59.3591 100.305 58.6819 100.355 57.8339C100.404 56.986 100.552 56.2748 100.801 55.7002C100.895 55.6869 101.152 55.6925 101.571 55.7168C101.99 55.7411 102.393 55.8065 102.78 55.913L102.802 56.7417C102.202 56.763 101.822 56.7878 101.662 56.8158C101.501 56.8439 101.4 56.8895 101.359 56.9526C101.166 57.2219 101.055 57.6081 101.026 58.1112Z" fill="white"/>
<path d="M104.002 61.6086C104.487 61.705 104.922 61.8627 105.307 62.0819C105.691 62.3011 106.044 62.5852 106.365 62.9344C106.684 63.2928 106.909 63.7419 107.039 64.2817C107.177 64.8325 107.175 65.4649 107.034 66.1789C106.89 66.9021 106.562 67.5935 106.05 68.2531C105.966 68.2459 105.714 68.2005 105.293 68.1168C104.881 68.035 104.48 67.8982 104.089 67.7065L104.157 66.8635C104.924 66.9303 105.389 66.9608 105.552 66.9551C105.722 66.9603 105.831 66.9392 105.879 66.8915C106.149 66.6788 106.328 66.3528 106.415 65.9134C106.563 65.1719 106.395 64.5534 105.913 64.058C105.431 63.5625 104.696 63.2166 103.707 63.0202C102.719 62.8238 101.899 62.9273 101.248 63.3309C100.606 63.7362 100.218 64.273 100.085 64.9413C100.045 65.1427 100.03 65.3395 100.04 65.5317C100.056 65.7348 100.089 65.8602 100.136 65.9077C100.356 66.0941 100.792 66.2949 101.444 66.5101L101.255 67.2434C100.845 67.2476 100.476 67.2169 100.146 67.1514C99.8256 67.0878 99.5848 67.0304 99.4237 66.9794C99.3667 66.7873 99.3406 66.4395 99.3455 65.9362C99.3595 65.4346 99.3965 65.0328 99.4565 64.7307C99.7402 63.3026 100.331 62.3637 101.229 61.9141C102.043 61.5049 102.968 61.4031 104.002 61.6086Z" fill="white"/>
<path d="M98.7996 68.2037L99.296 68.3153C99.2228 68.6965 99.2063 68.9395 99.2467 69.0444C99.2959 69.1526 99.4253 69.246 99.635 69.3247L104.472 71.1395C104.681 71.2182 104.836 71.2314 104.935 71.1789C105.044 71.1298 105.195 70.9376 105.391 70.6023L105.838 70.8449L104.697 73.8858C104.153 75.3364 103.313 75.8486 102.177 75.4223C101.819 75.2879 101.49 75.0202 101.192 74.6192C100.903 74.2215 100.738 73.7709 100.698 73.2673L100.645 73.2476C100.617 73.2968 100.539 73.3323 100.411 73.3541L97.7039 73.8337C97.528 73.8773 97.3882 73.9445 97.2844 74.0351C97.1773 74.1345 97.0675 74.3076 96.9549 74.5545L96.5077 74.3119L97.1519 72.5948L100.895 71.9057L101.131 71.2765L98.9286 70.4502C98.78 70.3945 98.6664 70.4316 98.5877 70.5616L98.2583 71.081L97.8012 70.8646L98.7996 68.2037ZM101.721 71.4978L101.553 71.9435C101.363 72.4503 101.328 72.8758 101.448 73.2199C101.577 73.5673 101.943 73.8542 102.546 74.0804C103.35 74.3821 103.912 74.1047 104.234 73.2483L104.43 72.724C104.47 72.6192 104.423 72.5318 104.29 72.4618L101.721 71.4978Z" fill="white"/>
<path d="M94.5211 77.6929C95.0967 76.7104 95.83 76.1232 96.7212 75.9313C97.6205 75.7442 98.5775 75.9478 99.5922 76.5422C100.607 77.1367 101.259 77.8973 101.549 78.8243C101.839 79.7513 101.696 80.7061 101.121 81.6886C100.545 82.6711 99.8157 83.2606 98.9326 83.4572C98.0494 83.6538 97.1005 83.4548 96.0858 82.8604C95.071 82.266 94.4107 81.5006 94.1047 80.5642C93.8068 79.6325 93.9456 78.6754 94.5211 77.6929ZM98.9358 77.8289C98.1144 77.3478 97.3371 77.1142 96.6041 77.1283C95.8664 77.1505 95.3136 77.4757 94.9456 78.1038C94.5777 78.732 94.5809 79.345 94.9554 79.943C95.3251 80.549 95.9207 81.0925 96.7421 81.5737C97.5716 82.0596 98.3472 82.2868 99.0688 82.2552C99.7857 82.2316 100.328 81.9058 100.696 81.2776C101.059 80.6575 101.06 80.0468 100.698 79.4456C100.345 78.849 99.7572 78.3101 98.9358 77.8289Z" fill="white"/>
<path d="M92.0043 81.903L92.4383 82.1687C92.246 82.5059 92.1521 82.7307 92.1566 82.843C92.1682 82.9612 92.2606 83.0914 92.4338 83.2335L96.4271 86.5108C96.6002 86.6529 96.7423 86.7152 96.8533 86.6976C96.9716 86.686 97.1773 86.553 97.4706 86.2986L97.8158 86.6725L95.9684 88.9234L95.5521 88.6362L95.8811 88.0368C95.9542 87.9036 95.9294 87.7866 95.8067 87.686L91.1857 83.8935L90.6459 84.5734C90.1676 85.1709 89.9043 85.5284 89.8562 85.6459C89.8094 85.7765 90.1357 86.2616 90.8351 87.1013L90.3655 87.5852C90.2658 87.5155 90.0825 87.371 89.8155 87.152C89.5486 86.9329 89.1502 86.5576 88.6204 86.0262L92.0043 81.903Z" fill="white"/>
<path d="M87.9244 86.767L88.3165 87.0913C88.0785 87.398 87.9538 87.6073 87.9423 87.7191C87.9371 87.8377 88.0102 87.9797 88.1615 88.1448L91.6517 91.9535C91.8031 92.1186 91.9349 92.2003 92.0473 92.1986C92.166 92.2038 92.3885 92.1012 92.7147 91.8909L93.0036 92.3097L90.8567 94.2771L90.4853 93.9339L90.8956 93.387C90.9867 93.2655 90.9787 93.1462 90.8715 93.0292L86.8327 88.6219L86.2023 89.2187C85.6443 89.7426 85.3332 90.0593 85.269 90.1688C85.2042 90.2915 85.4587 90.8179 86.0324 91.7479L85.4992 92.1607C85.4103 92.0775 85.2492 91.9086 85.0159 91.654C84.7826 91.3994 84.4413 90.9717 83.9918 90.3707L87.9244 86.767Z" fill="white"/>
<path d="M80.4191 93.0941L80.7238 93.5016C80.4203 93.7436 80.2498 93.9176 80.2123 94.0236C80.1793 94.1377 80.2169 94.2928 80.3251 94.489L82.8204 99.0124C82.9286 99.2085 83.0375 99.319 83.1471 99.3438C83.2612 99.3768 83.5016 99.3295 83.8682 99.2018L84.0504 99.6769L80.949 101.388C80.3851 101.699 79.8451 101.879 79.3292 101.93C78.8177 101.988 78.3642 101.929 77.9685 101.753C77.2071 101.416 76.5988 100.835 76.1435 100.009C75.7467 99.2903 75.5477 98.5527 75.5464 97.7966C75.538 96.9698 75.8153 96.2359 76.3784 95.5949C76.6858 95.2441 77.0725 94.9402 77.5383 94.6832L80.4191 93.0941ZM79.1445 95.0443C79.0679 94.9054 78.9511 94.8579 78.7941 94.9018C78.3976 95.014 78.0727 95.1399 77.8194 95.2797C77.1492 95.6493 76.7755 96.1699 76.6983 96.8414C76.6255 97.5211 76.8145 98.2696 77.2654 99.0868C77.5449 99.5935 77.8537 99.9987 78.1918 100.303C78.5299 100.606 78.8634 100.795 79.1923 100.87C79.8083 101.02 80.3614 100.96 80.8518 100.69L81.9305 100.095L79.1445 95.0443Z" fill="white"/>
<path d="M70.1422 97.8986C71.2226 97.539 72.1612 97.5807 72.9579 98.0237C73.7575 98.4756 74.3431 99.2594 74.7145 100.375C75.086 101.491 75.0753 102.493 74.6824 103.381C74.2895 104.269 73.5528 104.893 72.4725 105.253C71.3921 105.613 70.455 105.575 69.6612 105.141C68.8675 104.707 68.2849 103.932 67.9134 102.816C67.542 101.701 67.5498 100.69 67.9367 99.7837C68.3267 98.8866 69.0619 98.2583 70.1422 97.8986ZM73.3729 100.91C73.0722 100.007 72.6416 99.3193 72.081 98.8468C71.5115 98.3773 70.8814 98.2575 70.1907 98.4875C69.5 98.7174 69.0984 99.1806 68.986 99.8771C68.8647 100.577 68.9544 101.378 69.2551 102.281C69.5587 103.193 69.9923 103.875 70.5559 104.327C71.1106 104.782 71.7333 104.894 72.424 104.664C73.1059 104.437 73.5089 103.978 73.6332 103.288C73.7603 102.606 73.6736 101.814 73.3729 100.91Z" fill="white"/>
<path d="M61.5122 106.806L59.5426 102.183C59.456 102.016 59.4086 101.899 59.4006 101.834L59.2895 101.848L58.4198 106.555C58.3755 106.805 58.3603 106.985 58.3741 107.097C58.3947 107.263 58.6794 107.36 59.2281 107.386L59.2207 107.894L56.9421 108.177L56.835 107.654C57.1326 107.551 57.3278 107.457 57.4205 107.37C57.5039 107.284 57.5666 107.145 57.6084 106.952L59.0063 100.247L59.9233 100.133L61.4616 103.667C61.5067 103.802 61.5297 103.875 61.5309 103.884L61.6003 103.875C61.5969 103.847 61.6068 103.776 61.6301 103.66L62.452 99.8197L63.3828 99.7043L66.4082 106.016C66.4821 106.157 66.5637 106.246 66.6528 106.282C66.743 106.327 66.9311 106.365 67.217 106.395L67.2095 106.904L64.5142 107.238L64.4088 106.729L64.9682 106.463C65.0215 106.437 65.0458 106.406 65.0412 106.369L62.9883 101.756L62.8462 101.407L62.749 101.419L62.0177 104.966L62.6708 106.479C62.6858 106.524 62.7043 106.56 62.7263 106.585C62.7494 106.62 62.7667 106.646 62.7783 106.663C62.791 106.69 62.8124 106.711 62.8424 106.726C62.8737 106.75 62.8991 106.766 62.9188 106.773C62.9292 106.781 62.9587 106.792 63.0073 106.804C63.0559 106.817 63.0901 106.827 63.1098 106.834C63.2429 106.846 63.3384 106.857 63.3962 106.869L63.3749 107.38L60.8184 107.696L60.713 107.188L61.4392 106.9C61.4925 106.875 61.5168 106.843 61.5122 106.806Z" fill="white"/>
<path d="M55.7609 100.6L55.7898 101.108C55.4031 101.142 55.1649 101.193 55.0751 101.26C54.9846 101.337 54.9303 101.487 54.9122 101.711L54.4942 106.86C54.4761 107.083 54.5059 107.235 54.5835 107.316C54.6605 107.407 54.887 107.5 55.2631 107.596L55.1526 108.093L52.9897 107.917L50.1337 102.783C50.0435 102.626 49.9936 102.491 49.984 102.378L49.9003 102.371L49.5854 106.25C49.559 106.576 49.6021 106.795 49.7147 106.907C49.8266 107.028 50.1085 107.131 50.5606 107.214L50.45 107.711L47.9243 107.506L47.9233 107L48.6033 106.929C48.7451 106.913 48.8224 106.825 48.8352 106.667L49.3699 100.081L50.114 100.085L53.5639 106.208C53.6619 106.385 53.7114 106.524 53.7124 106.628L53.7961 106.634L54.2017 101.639C54.2168 101.453 54.1951 101.315 54.1368 101.226C54.0785 101.137 53.9571 101.076 53.7725 101.042L53.0269 100.883L53.1096 100.384L55.7609 100.6Z" fill="white"/>
<path d="M26.4531 87.322L25.9395 87.9184C24.9151 87.1049 23.9686 86.5994 23.1003 86.402C22.2254 86.1979 21.5335 86.3429 21.0247 86.8371C20.7034 87.1493 20.5525 87.5365 20.5722 87.9988C20.5787 88.461 20.7933 88.9096 21.216 89.3448C21.6387 89.7799 22.1286 90.1303 22.6858 90.3958L22.6393 90.8703L19.3819 93.605L16.8847 91.0342C16.8522 91.0007 16.8161 90.9837 16.7765 90.9831C16.6576 90.9946 16.3615 91.1586 15.8882 91.4752L15.4611 90.8947C16.1164 90.3102 16.654 89.8791 17.0738 89.6014L19.61 92.2124L21.5247 90.5868C21.0857 90.3626 20.6679 90.0463 20.2712 89.638C19.6274 88.9752 19.2706 88.3198 19.2008 87.672C19.1178 87.0239 19.3207 86.4626 19.8094 85.9878C20.5124 85.305 21.4759 85.0847 22.7001 85.3269C23.9309 85.5626 25.1819 86.2276 26.4531 87.322Z" fill="white"/>
<path d="M14.1847 86.3598L16.3699 84.7945L12.8376 84.311C12.6814 84.2852 12.5805 84.2886 12.5349 84.3212C12.4211 84.4027 12.5159 84.6792 12.8192 85.1508L12.3687 85.3874L10.942 83.3956L11.3501 83.0517C11.5663 83.3216 11.8307 83.4823 12.1433 83.534L15.1953 83.9482L16.5978 80.016C16.6595 79.8455 16.6761 79.6844 16.6477 79.5325C16.6192 79.3807 16.5284 79.1817 16.3751 78.9356L16.8256 78.699L17.9506 80.2697L16.5073 84.145L17.1552 84.232L18.8169 83.0417C18.9459 82.9493 18.9783 82.8343 18.9141 82.6966L18.6659 82.1338L19.1001 81.8744L20.7551 84.1849L20.3861 84.5353C20.1102 84.2622 19.9174 84.1133 19.8078 84.0885C19.6906 84.0691 19.5409 84.1246 19.3588 84.2551L15.1591 87.2634C14.977 87.3938 14.88 87.5149 14.8683 87.6267C14.8489 87.7439 14.9241 87.9771 15.0938 88.3262L14.6433 88.5628L12.9476 86.1955L13.3328 85.8678L13.8266 86.3408C13.9363 86.4458 14.0557 86.4522 14.1847 86.3598Z" fill="white"/>
<path d="M15.0594 76.466C14.683 75.7465 14.1764 75.5532 13.5396 75.8863C13.0517 76.1415 12.8226 76.7406 12.8523 77.6836C12.8596 78.08 12.8627 78.4787 12.8617 78.8794C12.8606 79.2802 12.7779 79.6658 12.6135 80.0362C12.4448 80.3983 12.1702 80.6788 11.7898 80.8778C11.2274 81.172 10.6662 81.1864 10.1061 80.9211C9.53342 80.6519 9.06972 80.1782 8.715 79.5C8.36028 78.8219 8.19451 78.2029 8.21767 77.643C8.26297 77.6088 8.42621 77.5181 8.70741 77.3711C8.98033 77.2283 9.32272 77.1177 9.73458 77.0392L10.134 77.6518C9.54364 78.0133 9.22733 78.2946 9.18509 78.4958C9.13852 78.6887 9.2104 78.967 9.40073 79.3309C9.59107 79.6948 9.81042 79.933 10.0588 80.0453C10.3201 80.1825 10.5872 80.1797 10.8602 80.0369C11.1248 79.8985 11.298 79.6657 11.3797 79.3386C11.457 79.0032 11.4899 78.6332 11.4784 78.2284C11.4585 77.828 11.4533 77.4253 11.4626 77.0201C11.4675 76.6068 11.5646 76.2084 11.7538 75.825C11.9304 75.4377 12.2172 75.1403 12.6142 74.9326C13.1931 74.6298 13.7687 74.6026 14.341 74.851C14.905 75.1037 15.3839 75.6063 15.7775 76.3589C16.1712 77.1115 16.4092 77.7981 16.4915 78.4186C16.4174 78.4784 16.1943 78.6056 15.8221 78.8003C15.45 78.995 15.0708 79.1459 14.6845 79.2532L14.2396 78.5537C14.743 78.2272 15.0563 78.0107 15.1796 77.904C15.3029 77.7974 15.3659 77.7065 15.3687 77.6313C15.3961 77.301 15.293 76.9126 15.0594 76.466Z" fill="white"/>
<path d="M14.3521 74.0398L13.8872 74.2787C13.7321 74.0365 13.6277 73.8953 13.5738 73.8549C13.508 73.8089 13.391 73.786 13.2227 73.7861L6.16357 73.7303L5.86462 72.8856L11.4604 68.2615C11.5535 68.189 11.5655 67.957 11.4963 67.5657L12.0118 67.4278L12.9367 70.0409L12.4718 70.2798C12.2037 69.8301 12.0081 69.6271 11.8849 69.6707C11.8321 69.6893 11.7664 69.7275 11.6878 69.785L10.6448 70.6145L11.5136 73.0693L12.9837 73.0688C13.0634 73.0703 13.1209 73.0648 13.1561 73.0523C13.1913 73.0399 13.207 73.0145 13.2034 72.9762L13.1398 72.167L13.6421 72.0338L14.3521 74.0398ZM10.8233 73.0909L10.0946 71.032L7.73306 72.8778C7.61665 72.9685 7.52766 73.0247 7.46607 73.0465L7.48942 73.1125L10.8233 73.0909Z" fill="white"/>
<path d="M11.8311 66.9917L11.3461 67.1456C11.2172 66.7794 11.1089 66.5612 11.0211 66.491C10.9242 66.4224 10.7653 66.4069 10.5445 66.4447L5.4524 67.3153C5.2316 67.3531 5.09148 67.4197 5.03204 67.515C4.9634 67.612 4.92913 67.8546 4.92922 68.2428L4.42064 68.2587L4.05491 66.1198L8.32125 62.081C8.45115 61.9546 8.56972 61.8728 8.67697 61.8355L8.66281 61.7527L4.82649 62.4086C4.50449 62.4637 4.30312 62.5597 4.22237 62.6966C4.13242 62.8351 4.10299 63.1336 4.13407 63.5923L3.62548 63.6082L3.19841 61.1105L3.68812 60.9841L3.92557 61.6253C3.97677 61.7586 4.08056 61.8118 4.23696 61.7851L10.7504 60.6714L10.9307 61.3933L5.85302 66.2526C5.7063 66.3913 5.58313 66.4739 5.4835 66.5004L5.49766 66.5832L10.438 65.7385C10.622 65.7071 10.7499 65.6521 10.8216 65.5735C10.8934 65.495 10.9228 65.3621 10.9097 65.175L10.8789 64.4133L11.3828 64.3697L11.8311 66.9917Z" fill="white"/>
<path d="M10.5005 59.0976L9.98225 59.1656C9.918 58.8853 9.86732 58.7171 9.8302 58.661C9.78379 58.5955 9.68135 58.5344 9.52291 58.4778L2.89625 56.0442L2.89971 55.1482L9.72728 52.6825C9.83942 52.6456 9.92892 52.4313 9.99576 52.0396L10.5276 52.0836L10.5169 54.8556L9.99863 54.9236C9.89794 54.4099 9.78227 54.1527 9.6516 54.1522C9.5956 54.152 9.52088 54.1657 9.42744 54.1934L8.16578 54.6225L8.15573 57.2265L9.53982 57.7218C9.61438 57.7501 9.67033 57.7643 9.70766 57.7645C9.74499 57.7646 9.7684 57.7461 9.77788 57.7088L9.9909 56.9256L10.5087 56.9696L10.5005 59.0976ZM7.49854 57.014L7.50697 54.83L4.66132 55.771C4.52114 55.8171 4.41838 55.8401 4.35305 55.8398L4.35278 55.9098L7.49854 57.014Z" fill="white"/>
<path d="M19.5751 28.1931L19.148 27.9165C19.3488 27.5842 19.4484 27.3619 19.4468 27.2495C19.4382 27.1311 19.3491 26.9986 19.1796 26.8521L15.2711 23.4742C15.1016 23.3277 14.9611 23.2618 14.8497 23.2766C14.7312 23.2852 14.5222 23.4129 14.2225 23.6597L13.887 23.2772L17.1734 19.4745C17.4299 19.6345 17.664 19.8061 17.8759 19.9891C18.0877 20.1722 18.3076 20.3746 18.5355 20.5962L18.1413 21.1807C17.6929 20.9289 17.4075 20.7809 17.2852 20.7369C17.1619 20.6797 17.0784 20.6692 17.0347 20.7055C16.8314 20.9122 16.6744 21.0725 16.5636 21.1865L15.7093 22.1321L17.8278 23.9629L18.6791 22.9778C18.7402 22.9072 18.6223 22.6511 18.3254 22.2095L18.6212 21.9101C19.1791 22.3922 19.7741 22.8386 20.4061 23.2491L20.1478 23.655C19.778 23.4834 19.539 23.3817 19.4308 23.3499C19.3287 23.311 19.2624 23.3092 19.2319 23.3445L18.3256 24.3932L20.4441 26.2241L20.9736 25.59C21.4548 25.0189 21.7606 24.6294 21.891 24.4214C21.9341 24.2859 21.7141 23.8553 21.2312 23.1295L21.6778 22.7198C21.7686 22.7859 21.9835 22.9655 22.3225 23.2584C22.6544 23.5453 22.9042 23.8414 23.072 24.1468L19.5751 28.1931Z" fill="white"/>
<path d="M23.2522 23.8153L22.8618 23.4677C23.0176 23.2479 23.1086 23.0961 23.1349 23.012C23.1622 22.9148 23.1692 22.7797 23.156 22.6066L22.8721 19.3085L19.537 18.3882C19.3558 18.3346 19.2217 18.3145 19.1346 18.3277C19.0415 18.3338 18.8846 18.3946 18.6639 18.5101L18.3995 18.0729L20.599 16.1859L20.9682 16.5517L20.5433 17.1745C20.5129 17.2251 20.5099 17.2646 20.5342 17.2929C20.5585 17.3213 20.6162 17.3455 20.7074 17.3657L22.6619 17.9024C22.7854 17.9317 22.8867 17.9924 22.9657 18.0845L23.0401 18.0207L22.8448 16.03C22.8163 15.7101 22.7778 15.5219 22.7292 15.4652C22.6806 15.4085 22.6051 15.3994 22.5029 15.438C22.4017 15.4633 22.2235 15.5423 21.9685 15.6751L21.6935 15.247L23.3829 13.7976L23.7612 14.174C23.6013 14.3603 23.5108 14.5056 23.4896 14.6099C23.4623 14.7071 23.4446 14.7653 23.4365 14.7846C23.4355 14.7977 23.433 14.8306 23.429 14.8833C23.432 14.9299 23.4361 14.9633 23.4411 14.9835C23.4401 14.9967 23.4407 15.0331 23.4427 15.0928C23.4518 15.1465 23.4589 15.1834 23.464 15.2037L23.6688 18.1085L27.4519 19.1425C27.5946 19.1798 27.8219 19.1079 28.1336 18.9265L28.4481 19.3576L26.2911 21.2081L25.9007 20.8606C26.1415 20.5679 26.2492 20.371 26.2239 20.2697C26.2198 20.2363 26.2056 20.2055 26.1813 20.1771C26.1509 20.1417 26.0871 20.1104 25.9899 20.0831L23.9093 19.5069C23.7797 19.4706 23.6815 19.4134 23.6147 19.3355L23.5297 19.4084L23.7738 22.0581C23.7981 22.1725 23.8225 22.2439 23.8468 22.2722C23.8711 22.3005 23.9171 22.304 23.985 22.2828L24.5619 22.0092L24.8673 22.4297L23.2522 23.8153Z" fill="white"/>
<path d="M25.4367 12.885L25.2286 12.4207L28.0054 10.6824C28.7016 10.2466 29.3228 10.078 29.8689 10.1765C30.4102 10.2672 30.864 10.6052 31.2305 11.1906C31.592 11.7681 31.6825 12.4052 31.502 13.1018C31.3293 13.7935 30.8316 14.3968 30.0089 14.9119L29.4393 15.2684L30.4793 16.9298C30.5684 17.0722 30.6812 17.1117 30.8177 17.0482L31.822 16.5682L32.0539 17.0177L29.2177 18.7931L28.891 18.403C29.1807 18.1446 29.3413 17.9615 29.3729 17.8536C29.3995 17.7378 29.3534 17.585 29.2345 17.3951L26.4934 13.0164C26.3746 12.8265 26.2597 12.7222 26.1489 12.7035C26.0331 12.6769 25.7957 12.7374 25.4367 12.885ZM28.0816 11.411L27.512 11.7676C27.3854 11.8468 27.3667 11.9576 27.4559 12.1L29.0901 14.7107L29.4936 14.4581C29.8971 14.2056 30.1798 13.8744 30.3417 13.4647C30.4987 13.0471 30.399 12.5535 30.0424 11.9839C29.5026 11.1216 28.849 10.9306 28.0816 11.411Z" fill="white"/>
<path d="M34.5843 15.4752L34.3154 15.0432C34.6385 14.8279 34.8232 14.6691 34.8695 14.5667C34.9121 14.4558 34.8879 14.2981 34.7968 14.0934L32.696 9.37387C32.6049 9.16922 32.5058 9.04988 32.3987 9.01582C32.2878 8.97324 32.0442 8.99991 31.6681 9.09584L31.5271 8.60693L34.1874 7.42273L34.4307 7.8661L33.868 8.25449C33.743 8.34079 33.7127 8.45642 33.7773 8.60138L36.2083 14.0628L36.9956 13.697C37.691 13.3772 38.0865 13.1756 38.1822 13.0922C38.2826 12.9964 38.2083 12.4165 37.9594 11.3524L38.5961 11.1303C38.654 11.2373 38.7531 11.4486 38.8936 11.7641C39.034 12.0796 39.2219 12.5936 39.4574 13.3061L34.5843 15.4752Z" fill="white"/>
<path d="M43.4776 12.1529C42.3763 12.4424 41.4424 12.3405 40.6758 11.8472C39.9068 11.3448 39.3729 10.525 39.0739 9.38763C38.7749 8.25027 38.85 7.25101 39.2992 6.38986C39.7483 5.52871 40.5235 4.9534 41.6248 4.66392C42.7261 4.37444 43.6588 4.47184 44.423 4.95614C45.1873 5.44043 45.7189 6.25125 46.0178 7.38861C46.3168 8.52598 46.2441 9.53426 45.7997 10.4135C45.3529 11.2836 44.5788 11.8635 43.4776 12.1529ZM40.4471 8.93979C40.6892 9.86052 41.0747 10.5746 41.6038 11.0821C42.1419 11.5873 42.763 11.7473 43.4671 11.5622C44.1711 11.3771 44.6017 10.9407 44.7586 10.2528C44.9246 9.56264 44.8866 8.75717 44.6446 7.83645C44.4002 6.9067 44.0113 6.19829 43.4779 5.71121C42.9536 5.22176 42.3394 5.06957 41.6353 5.25465C40.9403 5.43736 40.5086 5.8693 40.3402 6.55048C40.1695 7.22263 40.2051 8.01907 40.4471 8.93979Z" fill="white"/>
<path d="M48.3578 10.8723L48.2453 10.3761C48.6211 10.2786 48.8477 10.189 48.925 10.1075C49.0016 10.0167 49.0304 9.85969 49.0114 9.63649L48.5736 4.48908C48.5546 4.26589 48.5001 4.12065 48.4101 4.05337C48.3193 3.97679 48.0805 3.92217 47.6936 3.8895L47.7207 3.38138L50.957 3.10612C52.5007 2.97482 53.324 3.51365 53.4269 4.72262C53.4593 5.10391 53.3585 5.51527 53.1244 5.95669C52.8895 6.38882 52.5533 6.73121 52.1158 6.98386L52.1205 7.03966C52.1771 7.04422 52.2427 7.09952 52.3173 7.20558L53.9128 9.44443C54.0277 9.58452 54.1484 9.68198 54.2749 9.73679C54.4106 9.79082 54.6141 9.81566 54.8854 9.81132L54.8583 10.3194L53.0309 10.4749L50.8015 7.39071L50.132 7.44766L50.3313 9.7912C50.3447 9.94929 50.427 10.036 50.5782 10.0512L51.1887 10.1257L51.1896 10.6315L48.3578 10.8723ZM50.0786 6.81992L50.5528 6.77958C51.0922 6.73371 51.4915 6.58266 51.7508 6.32643C52.0092 6.06091 52.1111 5.60731 52.0565 4.96562C51.9838 4.11005 51.4917 3.72102 50.5803 3.79853L50.0223 3.84599C49.9107 3.85548 49.852 3.93542 49.846 4.0858L50.0786 6.81992Z" fill="white"/>
<path d="M55.6514 10.339L55.6146 9.83152C56.0007 9.7914 56.2381 9.73685 56.3269 9.66784C56.4162 9.58953 56.4682 9.43861 56.4829 9.2151L56.8214 4.0602C56.8361 3.83668 56.804 3.68492 56.7251 3.60491C56.6468 3.51558 56.4188 3.42578 56.0413 3.33551L56.1441 2.83718L61.1593 3.16658C61.1863 3.46767 61.1906 3.75791 61.1723 4.03731C61.1539 4.3167 61.1251 4.61412 61.0856 4.92954L60.3816 4.96749C60.3122 4.45784 60.2582 4.14095 60.2196 4.01682C60.1909 3.88399 60.1489 3.81108 60.0937 3.7981C59.8062 3.76051 59.5836 3.73186 59.4259 3.71215L58.1564 3.60071L57.9729 6.39469L59.2721 6.48002C59.3653 6.48614 59.4985 6.23767 59.6718 5.73462L60.0891 5.79008C60.0408 6.52583 60.0434 7.2696 60.0969 8.02139L59.6173 8.06004C59.5312 7.66154 59.4683 7.40954 59.4284 7.30404C59.3979 7.19915 59.3594 7.14517 59.3128 7.14211L57.9298 7.05127L57.7463 9.84525L58.5714 9.88542C59.3171 9.92504 59.8122 9.93418 60.0568 9.91283C60.1909 9.86551 60.4018 9.43041 60.6897 8.6075L61.2859 8.71681C61.2878 8.82918 61.2741 9.10888 61.2448 9.55592C61.216 9.99364 61.1304 10.3715 60.9879 10.6895L55.6514 10.339Z" fill="white"/>
<path d="M64.9283 11.0996L65.0362 10.6042C65.4316 10.6586 65.678 10.6727 65.7755 10.6465C65.8848 10.6144 65.9781 10.4981 66.0555 10.2977L68.0287 5.45213C68.1121 5.234 68.12 5.07908 68.0524 4.98735C67.9878 4.88678 67.7906 4.7415 67.4607 4.55149L67.6747 4.09178L69.8239 4.81624L69.9118 10.2532C69.9146 10.3033 69.9128 10.3963 69.9064 10.5321L70.0126 10.5678C70.063 10.4765 70.1031 10.4161 70.1327 10.3867L73.5783 6.08182L75.754 6.81523L75.6329 7.30624L74.9558 7.21098C74.8083 7.18097 74.7107 7.23672 74.663 7.37823L74.6452 7.43129L73.1657 12.916C73.115 13.0664 73.1515 13.1772 73.2752 13.2485L73.885 13.587L73.6842 14.0512L70.8452 13.0942L70.9399 12.5942C71.2938 12.6544 71.5314 12.6656 71.6525 12.6276C71.7767 12.5808 71.867 12.4734 71.9237 12.3053L71.9505 12.2257L73.2626 7.80737C73.3133 7.65701 73.3698 7.53324 73.4321 7.43605L73.3482 7.37822L69.5601 12.1291L68.6845 11.834L68.5709 6.16674C68.5801 6.05167 68.5996 5.94991 68.6294 5.86146L68.5366 5.83016L66.7546 10.4152C66.695 10.5921 66.6709 10.7366 66.6823 10.8488C66.6938 10.961 66.7746 11.0572 66.9249 11.1374L67.3712 11.3912L67.1704 11.8554L64.9283 11.0996Z" fill="white"/>
<path d="M77.4875 16.2549C76.5028 15.6829 75.913 14.9517 75.7178 14.0613C75.5274 13.1627 75.7275 12.205 76.3182 11.1881C76.9088 10.1712 77.6671 9.51608 78.593 9.22279C79.5189 8.92949 80.4742 9.06881 81.4588 9.64072C82.4434 10.2126 83.0357 10.9398 83.2355 11.8222C83.4353 12.7046 83.2399 13.6543 82.6492 14.6712C82.0586 15.6881 81.2956 16.3513 80.3603 16.6607C79.4297 16.9621 78.4721 16.8268 77.4875 16.2549ZM77.6073 11.8397C77.1291 12.6629 76.8984 13.441 76.9152 14.1739C76.9401 14.9115 77.2673 15.4632 77.8968 15.8288C78.5263 16.1945 79.1394 16.189 79.7359 15.8123C80.3406 15.4403 80.882 14.8428 81.3601 14.0196C81.843 13.1883 82.0673 12.4119 82.033 11.6904C82.0068 10.9736 81.679 10.4324 81.0495 10.0668C80.428 9.70579 79.8173 9.70726 79.2174 10.0712C78.6221 10.427 78.0854 11.0165 77.6073 11.8397Z" fill="white"/>
<path d="M81.8957 18.8202L82.1661 18.3891C82.5012 18.5851 82.725 18.6814 82.8373 18.6782C82.9556 18.6679 83.0868 18.5769 83.2308 18.4053L86.5515 14.448C86.6955 14.2764 86.7593 14.135 86.743 14.0238C86.7326 13.9055 86.6019 13.6983 86.3507 13.4023L86.7283 13.0612L89.2164 15.149C90.4032 16.1449 90.6067 17.1076 89.8268 18.037C89.5808 18.3302 89.2191 18.5506 88.7418 18.6984C88.2705 18.839 87.7907 18.8445 87.3024 18.715L87.2664 18.7579C87.3033 18.801 87.3107 18.8865 87.2888 19.0143L86.8404 21.7266C86.823 21.907 86.8398 22.0612 86.8908 22.1893C86.9489 22.3233 87.0756 22.4845 87.2709 22.6728L86.8933 23.0138L85.4884 21.8349L86.0838 18.0763L85.569 17.6443L84.0572 19.446C83.9552 19.5675 83.9524 19.687 84.0488 19.8045L84.4289 20.288L84.0728 20.647L81.8957 18.8202ZM85.974 17.1617L86.3386 17.4677C86.7533 17.8156 87.1429 17.9902 87.5074 17.9915C87.8779 17.9856 88.2701 17.736 88.684 17.2426C89.236 16.5849 89.1616 15.962 88.461 15.3741L88.032 15.0141C87.9462 14.9421 87.8482 14.9573 87.7379 15.0597L85.974 17.1617Z" fill="white"/>
<path d="M87.4014 23.5538L87.7328 23.1676C88.0351 23.4111 88.242 23.5396 88.3536 23.5532C88.4722 23.5605 88.6154 23.49 88.7833 23.3417L92.6548 19.9213C92.8226 19.773 92.9067 19.6426 92.9071 19.5302C92.9144 19.4117 92.8159 19.1874 92.6115 18.8573L93.0355 18.5761L96.3632 22.3427C96.1703 22.5754 95.9689 22.7844 95.7591 22.9698C95.5493 23.1552 95.3192 23.346 95.0691 23.5421L94.5427 23.0731C94.8524 22.6625 95.0373 22.3995 95.0973 22.2842C95.1705 22.1697 95.1921 22.0884 95.162 22.0402C94.9844 21.811 94.8466 21.6339 94.7485 21.5088L93.926 20.5355L91.8276 22.3894L92.6897 23.3651C92.7515 23.4351 93.0211 23.3526 93.4985 23.1176L93.7556 23.4509C93.203 23.9391 92.6809 24.4689 92.1893 25.0402L91.8217 24.7298C92.0413 24.3863 92.1742 24.1631 92.2202 24.0601C92.2724 23.9642 92.2831 23.8987 92.2522 23.8638L91.3345 22.8251L89.2361 24.6789L89.7935 25.2887C90.2949 25.8421 90.6399 26.1973 90.8285 26.3545C90.957 26.4153 91.4133 26.2551 92.1973 25.8738L92.5434 26.3713C92.4656 26.4524 92.2589 26.6413 91.9231 26.9379C91.5944 27.2284 91.2675 27.4363 90.9423 27.5616L87.4014 23.5538Z" fill="white"/>
<circle cx="8.5" cy="36.2932" r="2" fill="white"/>
<circle cx="102.5" cy="38.2932" r="2" fill="white"/>
<circle cx="34.5" cy="100.293" r="2" fill="white"/>
</svg>
