<svg width="40" height="28" viewBox="0 0 40 28" fill="none" xmlns="http://www.w3.org/2000/svg">
<rect x="0.5" y="0.5" width="39" height="26.4286" rx="5.5" fill="white" stroke="#D9D9D9"/>
<path fill-rule="evenodd" clip-rule="evenodd" d="M12.1434 18.5809H9.72014L7.90301 11.6484C7.81677 11.3295 7.63364 11.0476 7.36426 10.9148C6.69199 10.5808 5.9512 10.3151 5.14307 10.1811V9.91417H9.04669C9.58545 9.91417 9.98951 10.3151 10.0569 10.7807L10.9997 15.7813L13.4217 9.91417H15.7776L12.1434 18.5809ZM17.1245 18.5809H14.836L16.7204 9.91417H19.009L17.1245 18.5809ZM21.9698 12.3151C22.0371 11.8483 22.4412 11.5814 22.9126 11.5814C23.6534 11.5144 24.4603 11.6484 25.1338 11.9812L25.5379 10.1152C24.8644 9.84832 24.1236 9.71429 23.4513 9.71429C21.2302 9.71429 19.6139 10.9148 19.6139 12.5809C19.6139 13.8483 20.7587 14.5138 21.5669 14.9148C22.4412 15.3145 22.7779 15.5814 22.7106 15.9812C22.7106 16.5809 22.0371 16.8478 21.3648 16.8478C20.5567 16.8478 19.7486 16.6479 19.009 16.314L18.6049 18.1811C19.413 18.5139 20.2873 18.6479 21.0955 18.6479C23.586 18.7137 25.1338 17.5144 25.1338 15.7143C25.1338 13.4474 21.9698 13.3145 21.9698 12.3151ZM33.1431 18.5809L31.3259 9.91417H29.3741C28.9701 9.91417 28.566 10.1811 28.4313 10.5808L25.0664 18.5809H27.4223L27.8925 17.3145H30.7872L31.0566 18.5809H33.1431ZM29.7109 12.2481L30.3831 15.5144H28.4987L29.7109 12.2481Z" fill="#172B85"/>
</svg>
